<svg xmlns="http://www.w3.org/2000/svg" width="96" height="96" viewBox="0 0 96 96"><path d="M64.402 2.875C82.835 9.577 96 27.251 96 48c0 20.75-13.165 38.423-31.598 45.125L29 92.093C11.94 84.732 0 67.76 0 48 0 28.24 11.94 11.268 29 3.907l35.402-1.032z" fill="red"/><path d="M48 0a47.91 47.91 0 0116.405 2.876C71.905 6.936 77 14.873 77 24c0 13.255-10.745 24-24 24 13.255 0 24 10.745 24 24 0 9.127-5.095 17.064-12.596 21.123A47.881 47.881 0 0148 96a47.842 47.842 0 01-19.001-3.908V3.908A47.842 47.842 0 0148 0z" fill="#FF0"/></svg>
